# xmcd
#
# Track frame offsets:
#	150
#	20458
#	39878
#	55666
#	72431
#	91559
#	109508
#	132705
#	149517
#	165459
#	184787
#	198904
#	214976
#	230801
#	246459
#	263267
#
# Disc length: 3689 seconds
#
# Revision: 1
# Processed by: cddbd v1.5.2PL0 Copyright (c) Steve Scherf et al.
# Submitted via: audiograbber 1.83.01
#
DISCID=df0e6710
DTITLE=Various Artist - American Heartland - CD 3
DYEAR=2013
DGENRE=Country
TTITLE0=Lonestar - Amazed (Captain's Mix)
TTITLE1=Sara Evans - A Little Bit Stronger
TTITLE2=The Secret Sisters - Tomorrow Will Be Kinder
TTITLE3=Jessica Simpson - These Boots Are Made For Walkin'
TTITLE4=Laureen Alaina - Like My Mother Does
TTITLE5=Miranda Lambert - The House That Built Me
TTITLE6=Alan Jackson - Good Time
TTITLE7=Brooks and Dunn - Cowgirls Don't Cry
TTITLE8=Blake Shelton - Honey Bee
TTITLE9=Mindy McCready - Oh Romeo
TTITLE10=The Henningsens - American Beautiful
TTITLE11=Josh Turner - Your Man
TTITLE12=Ronnie Dunn - She's Acting Single (But I'm Drinking Doubles)
TTITLE13=Casey James - Let's Don't Call It A Night
TTITLE14=Keith Whitley - When You Say Nothing At All
TTITLE15=Chris Young - Love Don't Let Me Down
EXTD=
EXTT0=
EXTT1=
EXTT2=
EXTT3=
EXTT4=
EXTT5=
EXTT6=
EXTT7=
EXTT8=
EXTT9=
EXTT10=
EXTT11=
EXTT12=
EXTT13=
EXTT14=
EXTT15=
PLAYORDER=
